# xmcd
#
# Track frame offsets:
#	150
#	14750
#	26274
#	36888
#	53430
#	68689
#	81380
#	95267
#	108222
#	121115
#	138006
#	151929
#	165799
#	184511
#	198447
#	212048
#	224294
#	244782
#	256259
#	264759
#
# Disc length: 3908 seconds
#
# Revision: 2
# Processed by: cddbd v1.5.2PL0 Copyright (c) Steve Scherf et al.
# Submitted via: audiograbber 1.83.01
#
DISCID=f60f4214
DTITLE=L'Intégrale Jazz - L'Intégrale Jazz - CD1
DYEAR=2008
DGENRE=Jazz
TTITLE0=01 -  Billie Holiday - Solitude
TTITLE1=02 -  Glenn Miller - Fools Rush In
TTITLE2=03 - Ray Charles - Sitting On The Top Of The World 
TTITLE3=04 - Ella Fiztgerald - It's A Blue World 
TTITLE4=05 -  Benny Goodman - Goodbye
TTITLE5=06 -  Duke Ellington - Saratoga Swing
TTITLE6=07 -  Ella Fiztgerald - You Can't Be Mine
TTITLE7=08 -  Django Reinhardt - Blue Drag
TTITLE8=09 - Ray Charles - Snow Is Falling 
TTITLE9=10 - Frank Sinatra - Marie 
TTITLE10=11 - Louis Armstrong - Sweet As A Song 
TTITLE11=12 - Billie Holiday - The Man I Love 
TTITLE12=13 - Sydney Bechet - Summertime 
TTITLE13=14 - The Menphis Belle Orchestra - Take The A Train 
TTITLE14=15 - Duke Ellington - Caravan 
TTITLE15=16 - Charlie Barnet - Gone With The Wind 
TTITLE16=17 - Les Elgart - Fly Me To The Moon 
TTITLE17=18 - Tommy Dorset - Night And Day 
TTITLE18=19 - Harry James - Flight Of The Bumble Bee 
TTITLE19=20 - Ella Fitzgerald - April In Paris 
EXTD=
EXTT0=
EXTT1=
EXTT2=
EXTT3=
EXTT4=
EXTT5=
EXTT6=
EXTT7=
EXTT8=
EXTT9=
EXTT10=
EXTT11=
EXTT12=
EXTT13=
EXTT14=
EXTT15=
EXTT16=
EXTT17=
EXTT18=
EXTT19=
PLAYORDER=
